<svg width="772" height="118" viewBox="0 0 772 118" fill="none" xmlns="http://www.w3.org/2000/svg">
<path d="M57.8306 78.1245C54.6837 73.3749 51.3173 68.4266 47.7336 63.2806C44.1479 58.1356 40.5411 53.1682 36.9153 48.3712C33.2865 43.5792 29.7228 39.0707 26.2282 34.8486C22.7307 30.6255 19.5407 27.0641 16.6553 24.1612H0V115.595H20.1949V55.6938C27.8863 64.7542 35.144 74.3865 41.9638 84.5887C48.7826 94.7939 55.1195 105.128 60.9785 115.595H78.1567V24.1612H57.8306V78.1245ZM201.815 99.1018C200.59 99.366 199.17 99.5435 197.553 99.6293C195.934 99.718 193.989 99.7614 191.717 99.7614C187.521 99.7614 183.849 99.0352 180.701 97.5848C177.554 96.1334 174.931 94.0879 172.833 91.4494C170.736 88.8108 169.162 85.6669 168.113 82.0157C167.064 78.3655 166.539 74.2968 166.539 69.8104C166.539 60.5745 168.658 53.2973 172.899 47.9748C177.138 42.6533 184.022 39.9926 193.552 39.9926C197.834 39.9926 201.792 40.5423 205.421 41.6417C209.047 42.7421 212.26 44.0391 215.059 45.5339L220.96 29.042C220.258 28.6022 219.101 27.9859 217.484 27.1952C215.866 26.4034 213.812 25.6348 211.321 24.8864C208.829 24.1391 205.856 23.4794 202.404 22.9065C198.949 22.3366 195.081 22.0492 190.799 22.0492C184.504 22.0492 178.581 23.1042 173.031 25.2153C167.478 27.3263 162.648 30.4268 158.541 34.5168C154.43 38.6067 151.197 43.5994 148.836 49.4917C146.476 55.3851 145.296 62.158 145.296 69.8104C145.296 77.3761 146.366 84.1056 148.509 89.9969C150.65 95.8913 153.689 100.862 157.623 104.906C161.557 108.953 166.298 112.031 171.851 114.141C177.402 116.253 183.587 117.308 190.406 117.308C198.36 117.308 205.048 116.758 210.47 115.66C215.889 114.561 219.824 113.527 222.272 112.559V67.305H201.816V99.1018H201.815ZM296.101 59.1251H261.743V24.1612H241.287V115.595H261.743V76.8042H296.101V115.595H316.557V24.1612H296.101V59.1251ZM329.67 41.7092H357.077V115.595H377.534V41.7092H404.94V24.1612H329.67V41.7092ZM511.946 95.8036C510.547 96.4198 508.928 96.9705 507.093 97.4537C505.257 97.9378 503.16 98.3564 500.798 98.7064C498.439 99.0594 495.771 99.2339 492.801 99.2339C488.079 99.2339 484.058 98.4643 480.735 96.9252C477.413 95.387 474.724 93.2961 472.671 90.6586C470.614 88.019 469.13 84.8752 468.212 81.224C467.294 77.5758 466.836 73.6381 466.836 69.416C466.836 64.1389 467.535 59.6526 468.934 55.958C470.332 52.2634 472.19 49.2517 474.508 46.9208C476.823 44.5909 479.49 42.8964 482.507 41.8404C485.522 40.7853 488.604 40.2578 491.751 40.2578C496.473 40.2578 500.69 40.7853 504.406 41.8404C508.122 42.8964 511.378 44.1723 514.176 45.6671L520.078 29.043C519.378 28.6032 518.241 27.9869 516.668 27.1962C515.095 26.4044 513.128 25.6358 510.768 24.8875C508.406 24.1401 505.653 23.4804 502.506 22.9075C499.357 22.3377 495.861 22.0502 492.014 22.0502C485.37 22.0502 479.207 23.1052 473.524 25.2163C467.841 27.3273 462.945 30.4278 458.838 34.5178C454.727 38.6077 451.495 43.6216 449.134 49.5593C446.773 55.4971 445.592 62.2478 445.592 69.8114C445.592 85.0295 449.461 96.7708 457.198 105.04C464.936 113.308 476.191 117.443 490.965 117.443C497.871 117.443 503.948 116.736 509.192 115.33C514.438 113.923 518.502 112.341 521.389 110.581L515.749 94.0879C514.611 94.6164 513.344 95.1903 511.946 95.8036ZM554.957 24.1612H534.5V115.595H595.216V97.9146H554.957V24.1612ZM659.602 79.3106C659.602 86.6988 658.048 91.9335 654.948 95.0118C651.842 98.0911 647.799 99.6293 642.818 99.6293C640.37 99.6293 638.118 99.2783 636.065 98.5732C634.008 97.8702 632.261 96.7053 630.819 95.0764C629.377 93.4515 628.24 91.3394 627.411 88.7432C626.577 86.1511 626.164 83.0052 626.164 79.3096V24.1612H605.708V81.0273C605.708 86.3921 606.428 91.2981 607.87 95.738C609.314 100.181 611.543 104.008 614.559 107.217C617.574 110.43 621.398 112.936 626.033 114.736C630.665 116.539 636.173 117.444 642.556 117.444C649.023 117.444 654.62 116.563 659.342 114.804C664.062 113.046 667.952 110.562 671.012 107.349C674.07 104.14 676.344 100.291 677.831 95.8046C679.316 91.3182 680.061 86.3931 680.061 81.0283V24.1623H659.604V79.3106H659.602ZM768.31 75.0885C766.212 71.3092 762.278 68.3176 756.509 66.1168C763.502 61.8948 767 56.1355 767 48.8331C767 43.9968 766.016 39.928 764.049 36.6288C762.083 33.3306 759.349 30.6709 755.854 28.6456C752.355 26.6243 748.182 25.1951 743.33 24.3579C738.477 23.5238 733.166 23.1042 727.396 23.1042C723.113 23.1042 718.48 23.3019 713.497 23.6983C708.513 24.0937 703.924 24.6877 699.728 25.4795V114.141C705.06 115.286 710.196 116.01 715.137 116.319C720.075 116.626 725.037 116.78 730.02 116.78C743.743 116.78 754.084 114.363 761.034 109.524C767.985 104.688 771.459 97.4749 771.459 87.8859C771.458 83.1373 770.408 78.8729 768.31 75.0885ZM719.66 40.1257C721.233 39.9512 723.023 39.8413 725.035 39.7959C727.045 39.7535 728.925 39.7303 730.675 39.7303C736.093 39.7303 740.203 40.4797 743.001 41.9745C745.799 43.4713 747.198 46.0645 747.198 49.758C747.198 53.3659 745.841 55.9822 743.131 57.6081C740.421 59.237 735.918 60.049 729.626 60.049H719.66V40.1257ZM745.099 97.254C741.34 99.015 736.398 99.8935 730.282 99.8935C728.184 99.8935 726.258 99.8502 724.511 99.7614C722.762 99.6747 721.146 99.5425 719.66 99.365V75.7482H732.51C738.367 75.7482 742.87 76.6519 746.017 78.4543C749.164 80.2577 750.737 83.2694 750.737 87.4915C750.738 92.2431 748.858 95.497 745.099 97.254ZM106.472 21.1989C109.753 23.7205 117.257 22.0179 123.241 17.4025C129.231 12.784 131.419 7.00057 128.141 4.48003C126.623 3.30902 124.19 3.05989 121.427 3.57227C120.351 2.63728 118.65 2.19046 116.981 2.55054L111.36 3.76391C109.034 4.26822 107.673 6.12509 108.326 7.92043L109.156 10.206C104.899 14.4018 103.636 19.0203 106.472 21.1989ZM119.555 14.5108C123.763 13.0493 126.051 9.87514 124.911 7.24163C125.006 7.37174 125.101 7.49681 125.182 7.63197C126.765 10.3371 124.457 13.7775 120.025 15.3136C115.593 16.8528 110.715 15.9097 109.133 13.2066C109.054 13.0715 108.992 12.9333 108.931 12.7951C110.739 15.1926 115.348 15.9753 119.555 14.5108ZM119.625 24.8733H116.837V26.6182H119.625V24.8733ZM119.735 52.7163V28.3642H116.95V52.7163L118.302 56.6318L119.735 52.7163ZM99.1291 103.531C94.2229 107.865 101.748 114.646 106.656 110.314C110.691 106.752 113.942 102.748 116.683 98.4794C114.723 94.9997 112.47 90.9773 111.779 87.1536C108.851 92.8856 104.249 99.016 99.1291 103.531ZM118.995 72.2493C123.723 80.532 122.663 79.4952 125.002 82.5392C127.949 76.3271 129.91 68.2491 130.343 61.2139C130.543 60.6542 130.478 60.2003 130.198 59.822C130.387 59.5608 130.513 59.2078 130.513 58.6541V40.1862L154.711 4.85423C152.525 -0.446075 147.225 0.00982163 147.225 0.00982163C142.315 6.7938 133.203 19.0485 127.294 25.0539C126.65 24.8078 125.942 24.6676 125.2 24.6676H124.313L121.833 30.0324V58.3454C119.667 58.41 117.326 58.5996 115.095 58.8376V30.3522L112.26 24.6706H109.423C108.909 24.6706 108.427 24.7553 107.962 24.8753C101.699 19.2079 91.9486 9.4495 87.1416 2.8148C87.1416 2.8148 78.2038 0.576667 79.6555 6.89063C81.6813 9.36276 94.9693 27.8125 104.102 38.3636V58.6551C104.102 59.0898 104.188 59.3934 104.308 59.6415C104.338 60.3506 104.6 62.0148 105.361 65.5308C106.412 74.1727 117.621 97.5919 117.661 97.5273C120.34 102.967 123.35 108.266 126.822 113.374C130.393 118.641 139.596 113.827 136.005 108.534C131.083 101.281 120.771 78.1658 118.995 72.2493ZM104.98 60.2668C104.98 60.2668 104.978 60.2638 104.978 60.2608C104.98 60.2638 104.982 60.2658 104.985 60.2668H104.98Z" fill="white"/>
</svg>
