<svg width="807" height="56" viewBox="0 0 807 56" fill="none" xmlns="http://www.w3.org/2000/svg">
<g filter="url(#filter0_d_379_211)">
<path d="M29.664 16.512H33.696V38.688H29.664V28.864H20.032V38.688H16V16.512H20.032V25.376H29.664V16.512ZM85.72 38.688C85.4213 37.8133 85.112 36.9493 84.792 36.096C84.472 35.2427 84.1627 34.368 83.864 33.472H74.52C74.2213 34.368 73.912 35.2533 73.592 36.128C73.2933 36.9813 72.9947 37.8347 72.696 38.688H68.504C69.336 36.32 70.1253 34.1333 70.872 32.128C71.6187 30.1227 72.344 28.224 73.048 26.432C73.7733 24.64 74.488 22.9333 75.192 21.312C75.896 19.6907 76.6213 18.0907 77.368 16.512H81.176C81.9227 18.0907 82.648 19.6907 83.352 21.312C84.056 22.9333 84.76 24.64 85.464 26.432C86.1893 28.224 86.9253 30.1227 87.672 32.128C88.44 34.1333 89.24 36.32 90.072 38.688H85.72ZM79.192 20.8C78.7013 21.9307 78.136 23.3067 77.496 24.928C76.8773 26.5493 76.2267 28.3093 75.544 30.208H82.84C82.1573 28.3093 81.496 26.5387 80.856 24.896C80.216 23.2533 79.6613 21.888 79.192 20.8ZM129.461 38.688C127.861 35.232 126.314 31.616 124.821 27.84C123.349 24.064 121.973 20.288 120.693 16.512H125.141C125.653 18.0053 126.176 19.5307 126.709 21.088C127.242 22.6453 127.776 24.1813 128.309 25.696C128.842 27.1893 129.376 28.64 129.909 30.048C130.442 31.456 130.965 32.7467 131.477 33.92C131.968 32.7467 132.48 31.4667 133.013 30.08C133.546 28.672 134.08 27.2107 134.613 25.696C135.168 24.1813 135.712 22.6453 136.245 21.088C136.778 19.5307 137.29 18.0053 137.781 16.512H142.101C140.8 20.288 139.413 24.064 137.941 27.84C136.469 31.616 134.933 35.232 133.333 38.688H129.461ZM176.969 38.688V16.512H191.209V19.936H181.001V25.408H190.089V28.768H181.001V35.264H191.977V38.688H176.969ZM281.907 38.688C281.609 37.8133 281.299 36.9493 280.979 36.096C280.659 35.2427 280.35 34.368 280.051 33.472H270.707C270.409 34.368 270.099 35.2533 269.779 36.128C269.481 36.9813 269.182 37.8347 268.883 38.688H264.691C265.523 36.32 266.313 34.1333 267.059 32.128C267.806 30.1227 268.531 28.224 269.235 26.432C269.961 24.64 270.675 22.9333 271.379 21.312C272.083 19.6907 272.809 18.0907 273.555 16.512H277.363C278.11 18.0907 278.835 19.6907 279.539 21.312C280.243 22.9333 280.947 24.64 281.651 26.432C282.377 28.224 283.113 30.1227 283.859 32.128C284.627 34.1333 285.427 36.32 286.259 38.688H281.907ZM275.379 20.8C274.889 21.9307 274.323 23.3067 273.683 24.928C273.065 26.5493 272.414 28.3093 271.731 30.208H279.027C278.345 28.3093 277.683 26.5387 277.043 24.896C276.403 23.2533 275.849 21.888 275.379 20.8ZM370.899 19.552C368.617 19.552 366.867 20.2667 365.651 21.696C364.457 23.104 363.859 25.0667 363.859 27.584C363.859 28.7787 363.998 29.8773 364.275 30.88C364.574 31.8613 365.001 32.704 365.555 33.408C366.131 34.112 366.835 34.6667 367.667 35.072C368.521 35.456 369.513 35.648 370.643 35.648C371.347 35.648 371.955 35.6267 372.467 35.584C372.979 35.52 373.385 35.4453 373.683 35.36V27.392H377.715V38.048C377.161 38.2613 376.222 38.496 374.899 38.752C373.577 39.008 372.051 39.136 370.323 39.136C368.723 39.136 367.262 38.88 365.939 38.368C364.617 37.856 363.486 37.1093 362.547 36.128C361.63 35.1467 360.915 33.9413 360.403 32.512C359.891 31.0827 359.635 29.44 359.635 27.584C359.635 25.728 359.913 24.0853 360.467 22.656C361.043 21.2267 361.822 20.0213 362.803 19.04C363.785 18.0373 364.937 17.28 366.259 16.768C367.582 16.256 368.99 16 370.483 16C371.507 16 372.414 16.0747 373.203 16.224C374.014 16.352 374.707 16.5013 375.283 16.672C375.859 16.8427 376.329 17.024 376.691 17.216C377.075 17.408 377.342 17.5467 377.491 17.632L376.275 20.928C375.635 20.544 374.835 20.224 373.875 19.968C372.937 19.6907 371.945 19.552 370.899 19.552ZM417.671 27.584C417.671 28.8 417.82 29.9093 418.119 30.912C418.418 31.8933 418.844 32.736 419.399 33.44C419.975 34.1227 420.668 34.656 421.479 35.04C422.29 35.424 423.207 35.616 424.231 35.616C425.234 35.616 426.14 35.424 426.951 35.04C427.762 34.656 428.444 34.1227 428.999 33.44C429.575 32.736 430.012 31.8933 430.311 30.912C430.61 29.9093 430.759 28.8 430.759 27.584C430.759 26.368 430.61 25.2693 430.311 24.288C430.012 23.2853 429.575 22.4427 428.999 21.76C428.444 21.056 427.762 20.512 426.951 20.128C426.14 19.744 425.234 19.552 424.231 19.552C423.207 19.552 422.29 19.744 421.479 20.128C420.668 20.512 419.975 21.056 419.399 21.76C418.844 22.464 418.418 23.3067 418.119 24.288C417.82 25.2693 417.671 26.368 417.671 27.584ZM434.983 27.584C434.983 29.4827 434.695 31.1573 434.119 32.608C433.564 34.0587 432.796 35.2747 431.815 36.256C430.855 37.216 429.724 37.9413 428.423 38.432C427.122 38.9227 425.735 39.168 424.263 39.168C422.791 39.168 421.394 38.9227 420.071 38.432C418.77 37.9413 417.628 37.216 416.647 36.256C415.687 35.2747 414.919 34.0587 414.343 32.608C413.767 31.1573 413.479 29.4827 413.479 27.584C413.479 25.6853 413.767 24.0213 414.343 22.592C414.919 21.1413 415.698 19.9253 416.679 18.944C417.682 17.9627 418.834 17.2267 420.135 16.736C421.436 16.2453 422.812 16 424.263 16C425.714 16 427.09 16.2453 428.391 16.736C429.692 17.2267 430.823 17.9627 431.783 18.944C432.764 19.9253 433.543 21.1413 434.119 22.592C434.695 24.0213 434.983 25.6853 434.983 27.584ZM474.702 27.584C474.702 28.8 474.852 29.9093 475.15 30.912C475.449 31.8933 475.876 32.736 476.43 33.44C477.006 34.1227 477.7 34.656 478.51 35.04C479.321 35.424 480.238 35.616 481.262 35.616C482.265 35.616 483.172 35.424 483.982 35.04C484.793 34.656 485.476 34.1227 486.03 33.44C486.606 32.736 487.044 31.8933 487.342 30.912C487.641 29.9093 487.79 28.8 487.79 27.584C487.79 26.368 487.641 25.2693 487.342 24.288C487.044 23.2853 486.606 22.4427 486.03 21.76C485.476 21.056 484.793 20.512 483.982 20.128C483.172 19.744 482.265 19.552 481.262 19.552C480.238 19.552 479.321 19.744 478.51 20.128C477.7 20.512 477.006 21.056 476.43 21.76C475.876 22.464 475.449 23.3067 475.15 24.288C474.852 25.2693 474.702 26.368 474.702 27.584ZM492.014 27.584C492.014 29.4827 491.726 31.1573 491.15 32.608C490.596 34.0587 489.828 35.2747 488.846 36.256C487.886 37.216 486.756 37.9413 485.454 38.432C484.153 38.9227 482.766 39.168 481.294 39.168C479.822 39.168 478.425 38.9227 477.102 38.432C475.801 37.9413 474.66 37.216 473.678 36.256C472.718 35.2747 471.95 34.0587 471.374 32.608C470.798 31.1573 470.51 29.4827 470.51 27.584C470.51 25.6853 470.798 24.0213 471.374 22.592C471.95 21.1413 472.729 19.9253 473.71 18.944C474.713 17.9627 475.865 17.2267 477.166 16.736C478.468 16.2453 479.844 16 481.294 16C482.745 16 484.121 16.2453 485.422 16.736C486.724 17.2267 487.854 17.9627 488.814 18.944C489.796 19.9253 490.574 21.1413 491.15 22.592C491.726 24.0213 492.014 25.6853 492.014 27.584ZM532.469 35.36C532.704 35.3813 533.013 35.4027 533.397 35.424C533.781 35.424 534.304 35.424 534.965 35.424C537.675 35.424 539.691 34.7413 541.013 33.376C542.357 31.9893 543.029 30.0587 543.029 27.584C543.029 25.0667 542.379 23.136 541.077 21.792C539.776 20.448 537.76 19.776 535.029 19.776C533.835 19.776 532.981 19.808 532.469 19.872V35.36ZM547.253 27.584C547.253 29.504 546.955 31.1787 546.357 32.608C545.76 34.016 544.907 35.2 543.797 36.16C542.709 37.0987 541.387 37.8027 539.829 38.272C538.293 38.72 536.587 38.944 534.709 38.944C533.813 38.944 532.8 38.9013 531.669 38.816C530.539 38.752 529.461 38.6027 528.437 38.368V16.832C529.461 16.5973 530.549 16.448 531.701 16.384C532.853 16.32 533.877 16.288 534.773 16.288C536.629 16.288 538.325 16.512 539.861 16.96C541.397 17.3867 542.709 18.0693 543.797 19.008C544.907 19.9253 545.76 21.0987 546.357 22.528C546.955 23.936 547.253 25.6213 547.253 27.584ZM638.581 16.512V20H631.765V38.688H627.701V20H620.885V16.512H638.581ZM673.656 16.512H677.688V38.688H673.656V16.512ZM719.832 16.512C720.301 17.3227 720.824 18.3147 721.4 19.488C721.976 20.6613 722.563 21.8987 723.16 23.2C723.757 24.48 724.344 25.792 724.92 27.136C725.517 28.4587 726.061 29.6853 726.552 30.816C727.043 29.6853 727.576 28.4587 728.152 27.136C728.728 25.792 729.315 24.48 729.912 23.2C730.509 21.8987 731.096 20.6613 731.672 19.488C732.248 18.3147 732.771 17.3227 733.24 16.512H736.888C737.08 18.1333 737.261 19.8613 737.432 21.696C737.603 23.5093 737.752 25.376 737.88 27.296C738.029 29.1947 738.157 31.1147 738.264 33.056C738.392 34.976 738.499 36.8533 738.584 38.688H734.616C734.531 36.1067 734.424 33.4507 734.296 30.72C734.189 27.9893 734.019 25.344 733.784 22.784C733.549 23.2747 733.272 23.8613 732.952 24.544C732.632 25.2267 732.291 25.9733 731.928 26.784C731.565 27.5733 731.192 28.3947 730.808 29.248C730.445 30.1013 730.083 30.9333 729.72 31.744C729.379 32.5333 729.059 33.28 728.76 33.984C728.461 34.6667 728.205 35.2533 727.992 35.744H724.984C724.771 35.2533 724.515 34.656 724.216 33.952C723.917 33.248 723.587 32.5013 723.224 31.712C722.883 30.9013 722.52 30.0693 722.136 29.216C721.773 28.3627 721.411 27.5413 721.048 26.752C720.685 25.9627 720.344 25.2267 720.024 24.544C719.704 23.84 719.427 23.2533 719.192 22.784C718.957 25.344 718.776 27.9893 718.648 30.72C718.541 33.4507 718.445 36.1067 718.36 38.688H714.392C714.477 36.8533 714.573 34.9547 714.68 32.992C714.808 31.0293 714.936 29.088 715.064 27.168C715.213 25.2267 715.373 23.3493 715.544 21.536C715.715 19.7227 715.896 18.048 716.088 16.512H719.832ZM775.281 38.688V16.512H789.521V19.936H779.313V25.408H788.401V28.768H779.313V35.264H790.289V38.688H775.281Z" fill="white"/>
</g>
<defs>
<filter id="filter0_d_379_211" x="0" y="0" width="806.289" height="55.168" filterUnits="userSpaceOnUse" color-interpolation-filters="sRGB">
<feFlood flood-opacity="0" result="BackgroundImageFix"/>
<feColorMatrix in="SourceAlpha" type="matrix" values="0 0 0 0 0 0 0 0 0 0 0 0 0 0 0 0 0 0 127 0" result="hardAlpha"/>
<feOffset/>
<feGaussianBlur stdDeviation="8"/>
<feComposite in2="hardAlpha" operator="out"/>
<feColorMatrix type="matrix" values="0 0 0 0 0 0 0 0 0 0 0 0 0 0 0 0 0 0 1 0"/>
<feBlend mode="normal" in2="BackgroundImageFix" result="effect1_dropShadow_379_211"/>
<feBlend mode="normal" in="SourceGraphic" in2="effect1_dropShadow_379_211" result="shape"/>
</filter>
</defs>
</svg>
