<svg width="449" height="449" viewBox="0 0 449 449" fill="none" xmlns="http://www.w3.org/2000/svg">
<path d="M375.213 375.231L344.257 383.527L325.981 315.317C340.436 308.078 351.953 296.076 358.589 281.334C365.225 266.592 366.575 250.013 362.41 234.392C340.31 151.959 294.393 79.6625 292.446 76.6283C290.862 74.1521 288.541 72.236 285.809 71.1503C283.078 70.0646 280.074 69.8641 277.222 70.5773L238.882 80.1712C238.882 65.7014 238.566 56.6162 238.514 55.4762C238.374 52.4619 237.266 49.5731 235.355 47.2383C233.443 44.9035 230.83 43.247 227.903 42.5148L171.778 28.4835C168.926 27.7704 165.922 27.9708 163.191 29.0565C160.459 30.1422 158.138 32.0584 156.554 34.5345C154.607 37.5688 108.69 109.83 86.5903 192.386C82.4254 208.007 83.7748 224.586 90.4108 239.328C97.0469 254.07 108.564 266.072 123.019 273.311L104.743 341.433L73.7868 333.137C70.1911 332.174 66.3602 332.679 63.1367 334.541C59.9133 336.403 57.5614 339.468 56.5986 343.064C55.6357 346.66 56.1406 350.491 58.0023 353.714C59.864 356.938 62.9299 359.29 66.5257 360.252L150.713 382.808C151.898 383.119 153.118 383.278 154.344 383.281C157.751 383.285 161.043 382.049 163.606 379.804C166.168 377.559 167.827 374.459 168.271 371.081C168.716 367.703 167.916 364.279 166.021 361.447C164.127 358.615 161.266 356.57 157.974 355.692L131.841 348.677L150.117 280.467C151.537 280.555 152.941 280.608 154.344 280.608C168.264 280.568 181.86 276.402 193.411 268.634C204.963 260.866 213.951 249.847 219.238 236.97C221.308 248.143 223.798 259.455 226.798 270.68C230.813 285.609 239.637 298.798 251.904 308.205C264.171 317.612 279.197 322.713 294.656 322.719C296.059 322.719 297.463 322.719 298.883 322.579L317.159 390.788L291.026 397.804C287.749 398.694 284.906 400.743 283.025 403.569C281.143 406.396 280.351 409.809 280.794 413.176C281.237 416.542 282.886 419.634 285.435 421.877C287.985 424.12 291.261 425.363 294.656 425.375C295.882 425.372 297.102 425.213 298.287 424.901L382.474 402.346C386.07 401.383 389.136 399.031 390.998 395.808C392.859 392.585 393.364 388.754 392.401 385.158C391.439 381.562 389.087 378.496 385.863 376.635C382.64 374.773 378.809 374.268 375.213 375.231ZM273.995 100.306C278.871 108.549 286.676 122.3 295.393 139.699L238.531 153.94C237.795 136.401 237.865 121.932 238.093 112.215C238.093 111.233 238.18 110.251 238.233 109.268L273.995 100.306ZM175.005 58.2122L210.732 67.1396C210.837 74.6463 210.732 85.8538 210.364 99.5343C210.258 101.657 210.083 105.129 209.96 109.777C209.96 111.531 209.785 113.285 209.679 115.039L152.046 100.727C161.359 81.8549 169.848 66.9292 175.005 58.2122ZM194.982 221.483C191.965 232.138 184.872 241.175 175.239 246.636C165.606 252.097 154.208 253.543 143.517 250.659C132.826 247.775 123.701 240.794 118.121 231.229C112.541 221.664 110.955 210.286 113.706 199.56C120.614 174.613 129.409 150.228 140.014 126.615L207.68 143.522C205.319 169.78 201.075 195.834 194.982 221.483ZM253.983 263.437C247.112 236.867 242.529 209.758 240.285 182.406L307.653 165.569C318.847 190.17 328.084 215.617 335.277 241.671C336.799 247.039 337.24 252.656 336.572 258.195C335.904 263.735 334.142 269.087 331.387 273.939C328.633 278.791 324.941 283.048 320.526 286.46C316.112 289.873 311.063 292.374 305.674 293.818C300.284 295.262 294.661 295.62 289.132 294.871C283.603 294.122 278.277 292.282 273.466 289.456C268.654 286.631 264.453 282.877 261.105 278.413C257.757 273.949 255.33 268.865 253.966 263.454L253.983 263.437ZM324.139 76.4353C323.314 74.7864 322.821 72.9909 322.69 71.1515C322.558 69.312 322.791 67.4647 323.374 65.7153C323.957 63.9658 324.88 62.3484 326.088 60.9556C327.297 59.5629 328.768 58.422 330.418 57.5984L358.481 43.5671C360.13 42.7426 361.925 42.2509 363.765 42.1202C365.604 41.9895 367.451 42.2223 369.2 42.8054C370.949 43.3884 372.566 44.3103 373.959 45.5183C375.352 46.7264 376.493 48.197 377.318 49.8461C378.142 51.4953 378.634 53.2906 378.765 55.1298C378.896 56.9689 378.663 58.8158 378.08 60.565C377.497 62.3142 376.575 63.9314 375.367 65.3243C374.159 66.7172 372.688 67.8585 371.039 68.6831L342.976 82.7143C341.327 83.5401 339.532 84.0327 337.692 84.164C335.853 84.2954 334.006 84.0628 332.256 83.4796C330.507 82.8965 328.889 81.9741 327.497 80.7654C326.104 79.5567 324.963 78.0853 324.139 76.4353ZM406.906 126.281C406.906 130.003 405.428 133.572 402.797 136.203C400.165 138.834 396.596 140.313 392.875 140.313H364.812C361.091 140.313 357.522 138.834 354.891 136.203C352.26 133.572 350.781 130.003 350.781 126.281C350.781 122.56 352.26 118.991 354.891 116.36C357.522 113.728 361.091 112.25 364.812 112.25H392.875C396.596 112.25 400.165 113.728 402.797 116.36C405.428 118.991 406.906 122.56 406.906 126.281ZM57.5983 35.8149C58.4219 34.1649 59.5628 32.6935 60.9555 31.4848C62.3483 30.2761 63.9657 29.3537 65.7152 28.7706C67.4646 28.1874 69.3119 27.9548 71.1514 28.0862C72.9908 28.2175 74.7863 28.7101 76.4352 29.5359L104.498 43.5671C106.147 44.3917 107.617 45.533 108.825 46.9259C110.034 48.3188 110.955 49.936 111.538 51.6852C112.122 53.4344 112.354 55.2812 112.224 57.1204C112.093 58.9595 111.601 60.755 110.777 62.4041C109.952 64.0532 108.811 65.5238 107.418 66.7318C106.025 67.9399 104.408 68.8618 102.659 69.4448C99.126 70.6224 95.2703 70.3484 91.9398 68.6831L63.8773 54.6518C62.2273 53.8282 60.7559 52.6873 59.5472 51.2946C58.3385 49.9018 57.4161 48.2844 56.833 46.5349C56.2498 44.7855 56.0172 42.9382 56.1486 41.0987C56.2799 39.2593 56.7725 37.4638 57.5983 35.8149ZM70.1562 126.281H42.0938C38.3724 126.281 34.8035 124.803 32.1722 122.172C29.5408 119.54 28.0625 115.971 28.0625 112.25C28.0625 108.529 29.5408 104.96 32.1722 102.329C34.8035 99.6971 38.3724 98.2189 42.0938 98.2189H70.1562C73.8776 98.2189 77.4465 99.6971 80.0778 102.329C82.7092 104.96 84.1875 108.529 84.1875 112.25C84.1875 115.971 82.7092 119.54 80.0778 122.172C77.4465 124.803 73.8776 126.281 70.1562 126.281Z" fill="#FF2A70"/>
</svg>
