<svg width="27" height="20" viewBox="0 0 27 20" fill="none" xmlns="http://www.w3.org/2000/svg">
<path d="M26.6627 0.625238V19.3725C26.6627 19.7162 26.3815 19.9974 26.0378 19.9974H23.9548C23.6111 19.9974 23.3299 19.7162 23.3299 19.3725V11.4622L14.3989 19.612C13.3262 20.5077 11.6649 19.7578 11.6649 18.331V11.4622L2.73397 19.612C1.66121 20.5077 0 19.7578 0 18.331V1.66675C0 0.239879 1.66121 -0.504803 2.73397 0.38569L11.6649 8.47824V1.66675C11.6649 0.239879 13.3262 -0.504803 14.3989 0.38569L23.3299 8.47824V0.625238C23.3299 0.281539 23.6111 0.000330636 23.9548 0.000330636H26.0378C26.3815 0.000330636 26.6627 0.281539 26.6627 0.625238Z" fill="white"/>
</svg>
