<svg width="27" height="20" viewBox="0 0 27 20" fill="none" xmlns="http://www.w3.org/2000/svg">
<path d="M0 19.3747V0.62531C0 0.281571 0.281241 0.000330674 0.624979 0.000330674H2.70824C3.05198 0.000330674 3.33322 0.281571 3.33322 0.62531V8.53651L12.2652 0.385735C13.3381 -0.504861 14.9995 0.239906 14.9995 1.66694V8.53651L23.9315 0.385735C25.0044 -0.504861 26.6658 0.239906 26.6658 1.66694V18.3331C26.6658 19.7601 25.0044 20.5049 23.9315 19.6143L14.9995 11.526V18.3331C14.9995 19.7601 13.3381 20.5049 12.2652 19.6143L3.33322 11.526V19.3747C3.33322 19.7184 3.05198 19.9997 2.70824 19.9997H0.624979C0.281241 19.9997 0 19.7184 0 19.3747Z" fill="white"/>
</svg>
