<?xml version="1.0" encoding="UTF-8"?>
<svg id="Layer_2" data-name="Layer 2" xmlns="http://www.w3.org/2000/svg" viewBox="0 0 196.43 300">
  <defs>
    <style>
      .cls-1 {
        fill: #ee3271;
      }
    </style>
  </defs>
  <g id="Layer_1-2" data-name="Layer 1">
    <path class="cls-1" d="M70.44,54.99c8.57,6.55,28.16,2.13,43.79-9.84,15.63-11.99,21.35-26.99,12.79-33.53-3.96-3.04-10.31-3.69-17.53-2.36-2.81-2.43-7.26-3.59-11.61-2.64l-14.68,3.14c-6.07,1.31-9.63,6.12-7.92,10.78l2.17,5.93c-11.11,10.89-14.41,22.88-7,28.52ZM104.6,37.65c10.99-3.8,16.97-12.02,13.99-18.86.26.34.51.67.71,1.02,4.14,7.02-1.89,15.94-13.46,19.92-11.59,4-24.32,1.55-28.46-5.46-.21-.36-.36-.71-.53-1.07,4.72,6.21,16.76,8.25,27.74,4.45ZM104.8,64.52h-7.29v4.52h7.29v-4.52ZM105.07,136.75v-63.17h-7.27v63.17l3.53,10.15,3.75-10.15ZM51.27,268.57c-12.81,11.24,6.83,28.82,19.65,17.58,10.54-9.24,19.02-19.63,26.18-30.71-5.12-9.02-11-19.46-12.8-29.37-7.65,14.87-19.67,30.77-33.03,42.49ZM103.15,187.43c12.34,21.49,9.57,18.79,15.68,26.69,7.71-16.12,12.82-37.06,13.95-55.32.53-1.45.35-2.63-.37-3.6.48-.68.82-1.59.82-3.03v-47.91L196.43,12.6C190.71-1.15,176.88.03,176.88.03c-12.82,17.6-36.62,49.39-52.05,64.97-1.69-.63-3.53-1-5.48-1h-2.3l-6.47,13.91v73.44c-5.66.17-11.78.67-17.59,1.28v-73.88l-7.41-14.74h-7.41c-1.34,0-2.6.23-3.82.53C57.98,49.83,32.52,24.52,19.97,7.31,19.97,7.31-3.37,1.51.42,17.88c5.29,6.41,39.99,54.27,63.84,81.63v52.64c0,1.12.23,1.91.53,2.55.08,1.84.77,6.16,2.75,15.28,2.74,22.41,32.02,83.17,32.12,82.98,7,14.11,14.86,27.87,23.92,41.11,9.33,13.67,33.36,1.18,23.98-12.55-12.85-18.81-39.78-78.76-44.42-94.1ZM66.54,156.33v-.02s0,.02.02.02h-.02Z"/>
  </g>
</svg>